<svg id="visual" viewBox="0 0 900 600" width="900" height="600" xmlns="http://www.w3.org/2000/svg" xmlns:xlink="http://www.w3.org/1999/xlink" version="1.1"><rect x="0" y="0" width="900" height="600" fill="#FF0066"></rect><g transform="translate(467.8312667476089 357.06885380357176)"><path d="M139.3 -208.9C161 -175.9 145.6 -109.1 152.1 -57C158.5 -4.9 186.7 32.4 182.6 63.8C178.6 95.1 142.2 120.4 106.4 121.2C70.5 122.1 35.3 98.5 2.4 95.2C-30.4 91.8 -60.7 108.6 -105.3 110.6C-149.8 112.5 -208.5 99.7 -217.4 71C-226.4 42.2 -185.5 -2.4 -157.5 -39.6C-129.5 -76.9 -114.4 -106.8 -90.3 -139C-66.2 -171.1 -33.1 -205.6 12.8 -223.2C58.8 -240.9 117.6 -241.8 139.3 -208.9" fill="#BB004B"></path></g></svg>