<svg id="visual" viewBox="0 0 900 600" width="900" height="600" xmlns="http://www.w3.org/2000/svg" xmlns:xlink="http://www.w3.org/1999/xlink" version="1.1"><rect x="0" y="0" width="900" height="600" fill="#FF0066"></rect><g transform="translate(507.484936125915 287.78483384002527)"><path d="M66.8 -86.1C86.9 -77.3 103.8 -58.3 104.1 -38.3C104.3 -18.4 87.8 2.4 85.1 32.9C82.4 63.5 93.5 103.7 81.6 141.5C69.8 179.3 34.9 214.7 -0.1 214.8C-35.1 214.9 -70.1 179.9 -98 147.3C-125.9 114.7 -146.7 84.5 -169.5 47.3C-192.4 10 -217.5 -34.4 -219 -83.9C-220.5 -133.4 -198.4 -188.1 -158 -190.3C-117.6 -192.5 -58.8 -142.2 -17.7 -117.8C23.3 -93.4 46.6 -94.8 66.8 -86.1" fill="#BB004B"></path></g></svg>