<svg id="visual" viewBox="0 0 900 300" width="900" height="300" xmlns="http://www.w3.org/2000/svg" xmlns:xlink="http://www.w3.org/1999/xlink" version="1.1"><rect x="0" y="0" width="900" height="300" fill="#3c31dd"></rect><path d="M0 163L18.8 154.8C37.7 146.7 75.3 130.3 112.8 121.8C150.3 113.3 187.7 112.7 225.2 111.2C262.7 109.7 300.3 107.3 337.8 108.8C375.3 110.3 412.7 115.7 450.2 123.8C487.7 132 525.3 143 562.8 142.5C600.3 142 637.7 130 675.2 121C712.7 112 750.3 106 787.8 106C825.3 106 862.7 112 881.3 115L900 118L900 0L881.3 0C862.7 0 825.3 0 787.8 0C750.3 0 712.7 0 675.2 0C637.7 0 600.3 0 562.8 0C525.3 0 487.7 0 450.2 0C412.7 0 375.3 0 337.8 0C300.3 0 262.7 0 225.2 0C187.7 0 150.3 0 112.8 0C75.3 0 37.7 0 18.8 0L0 0Z" fill="#3c31dd"></path><path d="M0 94L18.8 93.2C37.7 92.3 75.3 90.7 112.8 87C150.3 83.3 187.7 77.7 225.2 78C262.7 78.3 300.3 84.7 337.8 85.2C375.3 85.7 412.7 80.3 450.2 79.3C487.7 78.3 525.3 81.7 562.8 84.7C600.3 87.7 637.7 90.3 675.2 91.8C712.7 93.3 750.3 93.7 787.8 97.3C825.3 101 862.7 108 881.3 111.5L900 115L900 0L881.3 0C862.7 0 825.3 0 787.8 0C750.3 0 712.7 0 675.2 0C637.7 0 600.3 0 562.8 0C525.3 0 487.7 0 450.2 0C412.7 0 375.3 0 337.8 0C300.3 0 262.7 0 225.2 0C187.7 0 150.3 0 112.8 0C75.3 0 37.7 0 18.8 0L0 0Z" fill="#eb5967"></path><path d="M0 58L18.8 57.5C37.7 57 75.3 56 112.8 54.5C150.3 53 187.7 51 225.2 51C262.7 51 300.3 53 337.8 60.5C375.3 68 412.7 81 450.2 85C487.7 89 525.3 84 562.8 82.8C600.3 81.7 637.7 84.3 675.2 78.2C712.7 72 750.3 57 787.8 54.8C825.3 52.7 862.7 63.3 881.3 68.7L900 74L900 0L881.3 0C862.7 0 825.3 0 787.8 0C750.3 0 712.7 0 675.2 0C637.7 0 600.3 0 562.8 0C525.3 0 487.7 0 450.2 0C412.7 0 375.3 0 337.8 0C300.3 0 262.7 0 225.2 0C187.7 0 150.3 0 112.8 0C75.3 0 37.7 0 18.8 0L0 0Z" fill="#da3f67"></path><path d="M0 55L18.8 51.7C37.7 48.3 75.3 41.7 112.8 36C150.3 30.3 187.7 25.7 225.2 24.2C262.7 22.7 300.3 24.3 337.8 27C375.3 29.7 412.7 33.3 450.2 31.8C487.7 30.3 525.3 23.7 562.8 21C600.3 18.3 637.7 19.7 675.2 22.5C712.7 25.3 750.3 29.7 787.8 32C825.3 34.3 862.7 34.7 881.3 34.8L900 35L900 0L881.3 0C862.7 0 825.3 0 787.8 0C750.3 0 712.7 0 675.2 0C637.7 0 600.3 0 562.8 0C525.3 0 487.7 0 450.2 0C412.7 0 375.3 0 337.8 0C300.3 0 262.7 0 225.2 0C187.7 0 150.3 0 112.8 0C75.3 0 37.7 0 18.8 0L0 0Z" fill="#0f0f10"></path></svg>